<?xml version="1.0" encoding="UTF-8" standalone="no"?>
<svg
   xmlns:dc="http://purl.org/dc/elements/1.1/"
   xmlns:cc="http://creativecommons.org/ns#"
   xmlns:rdf="http://www.w3.org/1999/02/22-rdf-syntax-ns#"
   xmlns:svg="http://www.w3.org/2000/svg"
   xmlns="http://www.w3.org/2000/svg"
   xmlns:sodipodi="http://sodipodi.sourceforge.net/DTD/sodipodi-0.dtd"
   xmlns:inkscape="http://www.inkscape.org/namespaces/inkscape"
   version="1.1"
   x="0px"
   y="0px"
   viewBox="0 0 1000 1000"
   enable-background="new 0 0 1000 1000"
   xml:space="preserve"
   id="svg8"
   sodipodi:docname="icon_codepen_02.svg"
   inkscape:version="1.0.1 (3bc2e813f5, 2020-09-07)"><defs
   id="defs12" /><sodipodi:namedview
   pagecolor="#ffffff"
   bordercolor="#666666"
   borderopacity="1"
   objecttolerance="10"
   gridtolerance="10"
   guidetolerance="10"
   inkscape:pageopacity="0"
   inkscape:pageshadow="2"
   inkscape:window-width="1920"
   inkscape:window-height="1017"
   id="namedview10"
   showgrid="false"
   inkscape:zoom="0.85"
   inkscape:cx="500"
   inkscape:cy="500"
   inkscape:window-x="-8"
   inkscape:window-y="-8"
   inkscape:window-maximized="1"
   inkscape:current-layer="svg8" />
<metadata
   id="metadata2"> Svg Vector Icons : http://www.onlinewebfonts.com/icon <rdf:RDF><cc:Work
     rdf:about=""><dc:format>image/svg+xml</dc:format><dc:type
       rdf:resource="http://purl.org/dc/dcmitype/StillImage" /><dc:title></dc:title></cc:Work></rdf:RDF></metadata>
<path
   id="path4"
   d="M 193.69922 10 C 143.09922 10 99.800391 28.000781 63.900391 63.800781 C 28.000391 99.800781 10 143.09922 10 193.69922 L 10 806.19922 C 10 856.89922 28.000781 900.19961 63.800781 936.09961 C 99.800781 971.99961 143.09922 990 193.69922 990 L 806.19922 990 C 856.89922 990 900.19961 972 936.09961 936 C 971.99961 900.1 990 856.79922 990 806.19922 L 990 193.69922 C 990 143.09922 972 99.800391 936 63.900391 C 900.1 28.000391 856.79922 10 806.19922 10 L 193.69922 10 z M 499.98828 197.125 C 505.02578 197.125 510.05039 198.57461 514.40039 201.47461 L 791.30078 386.17578 C 791.40078 386.27578 791.49922 386.37461 791.69922 386.47461 L 792.90039 387.375 L 794.40039 388.57422 C 794.70039 388.87422 795.10039 389.17422 795.40039 389.57422 C 795.90039 389.97422 796.29922 390.47461 796.69922 390.97461 C 796.99922 391.27461 797.29961 391.67422 797.59961 392.07422 C 797.99961 392.57422 798.29922 393.17578 798.69922 393.67578 C 798.89922 394.07578 799.20039 394.475 799.40039 394.875 C 799.70039 395.375 800.00078 395.97422 800.30078 396.57422 C 800.50078 396.97422 800.70039 397.475 800.90039 397.875 C 801.20039 398.475 801.39961 399.17539 801.59961 399.77539 C 801.69961 400.27539 801.9 400.67422 802 401.07422 C 802.2 401.77422 802.4 402.57539 802.5 403.27539 C 802.5 403.67539 802.59922 403.975 802.69922 404.375 C 802.89922 405.475 803 406.57539 803 407.77539 L 803 592.47461 C 803 593.57461 802.90078 594.775 802.80078 595.875 C 802.80078 596.275 802.69961 596.57461 802.59961 596.97461 C 802.39961 597.67461 802.29961 598.47578 802.09961 599.17578 C 801.99961 599.67578 801.79922 600.07461 801.69922 600.47461 C 801.49922 601.07461 801.3 601.775 801 602.375 C 800.8 602.875 800.60039 603.27578 800.40039 603.67578 C 800.10039 604.27578 799.8 604.775 799.5 605.375 C 799.3 605.775 799.00078 606.17422 798.80078 606.57422 C 798.50078 607.17422 798.09922 607.67578 797.69922 608.17578 C 797.39922 608.57578 797.10078 608.87539 796.80078 609.27539 C 796.40078 609.77539 796 610.27578 795.5 610.67578 C 795.2 610.97578 794.9 611.37578 794.5 611.67578 L 793 612.875 L 791.80078 613.77539 C 791.70078 613.87539 791.50039 613.97422 791.40039 614.07422 L 514.30078 798.47461 C 510.00078 801.37461 504.90039 802.875 499.90039 802.875 C 494.90039 802.875 489.9 801.37461 485.5 798.47461 L 208.59961 613.875 C 208.49961 613.775 208.39922 613.67422 208.19922 613.57422 L 207 612.67578 L 205.5 611.47461 C 205.2 611.17461 204.8 610.87461 204.5 610.47461 C 204 610.07461 203.59922 609.57422 203.19922 609.07422 C 202.89922 608.77422 202.60078 608.37461 202.30078 607.97461 C 201.90078 607.47461 201.49922 606.875 201.19922 606.375 C 200.99922 605.975 200.7 605.57578 200.5 605.17578 C 200.2 604.67578 199.89961 604.07461 199.59961 603.47461 C 199.39961 603.07461 199.2 602.57578 199 602.17578 C 198.7 601.57578 198.50078 600.87539 198.30078 600.27539 C 198.20078 599.77539 198.00039 599.37461 197.90039 598.97461 C 197.70039 598.27461 197.50039 597.47539 197.40039 596.77539 C 197.30039 596.37539 197.19922 596.07578 197.19922 595.67578 C 197.09922 594.57578 197 593.37539 197 592.27539 L 197 407.67578 C 197 406.47578 196.99922 405.37539 197.19922 404.27539 C 197.19922 403.87539 197.30039 403.57578 197.40039 403.17578 C 197.60039 402.47578 197.70039 401.67461 197.90039 400.97461 C 198.00039 400.47461 198.20078 400.07578 198.30078 399.67578 C 198.50078 399.07578 198.7 398.37539 199 397.77539 C 199.2 397.27539 199.39961 396.87461 199.59961 396.47461 C 199.89961 395.87461 200.2 395.37539 200.5 394.77539 C 200.7 394.37539 200.89922 393.97422 201.19922 393.57422 C 201.49922 392.97422 201.90078 392.47461 202.30078 391.97461 C 202.60078 391.67461 202.89922 391.275 203.19922 390.875 C 203.59922 390.375 204.1 389.87461 204.5 389.47461 C 204.8 389.17461 205.1 388.77461 205.5 388.47461 L 207 387.27539 L 208.19922 386.375 C 208.29922 386.275 208.49961 386.17422 208.59961 386.07422 L 485.5 201.47461 C 489.9 198.57461 494.95078 197.125 499.98828 197.125 z M 474 271.77539 L 270 407.77539 L 361.09961 468.77539 L 474 393.27539 L 474 271.77539 z M 526 271.77539 L 526 393.27539 L 638.90039 468.77539 L 730 407.77539 L 526 271.77539 z M 500 438.47461 L 407.90039 500.07422 L 500 561.67578 L 592.09961 500.07422 L 500 438.47461 z M 249.09961 456.47461 L 249.09961 543.67578 L 314.19922 500.07422 L 249.09961 456.47461 z M 750.90039 456.47461 L 685.80078 500.07422 L 750.90039 543.67578 L 750.90039 456.47461 z M 638.90039 531.375 L 526 606.875 L 526 728.375 L 730 592.27539 L 638.90039 531.375 z M 361.09961 531.47461 L 270 592.375 L 474 728.375 L 474 606.875 L 361.09961 531.47461 z "
   style="fill:#ffffff" />
</svg>
