<?xml version="1.0" encoding="UTF-8" standalone="no"?>
<svg
   xmlns:dc="http://purl.org/dc/elements/1.1/"
   xmlns:cc="http://creativecommons.org/ns#"
   xmlns:rdf="http://www.w3.org/1999/02/22-rdf-syntax-ns#"
   xmlns:svg="http://www.w3.org/2000/svg"
   xmlns="http://www.w3.org/2000/svg"
   xmlns:sodipodi="http://sodipodi.sourceforge.net/DTD/sodipodi-0.dtd"
   xmlns:inkscape="http://www.inkscape.org/namespaces/inkscape"
   version="1.1"
   x="0px"
   y="0px"
   viewBox="0 0 1000 1000"
   enable-background="new 0 0 1000 1000"
   xml:space="preserve"
   id="svg22"
   sodipodi:docname="icon_github_02.svg"
   inkscape:version="1.0.1 (3bc2e813f5, 2020-09-07)"><defs
   id="defs26" /><sodipodi:namedview
   pagecolor="#ffffff"
   bordercolor="#666666"
   borderopacity="1"
   objecttolerance="10"
   gridtolerance="10"
   guidetolerance="10"
   inkscape:pageopacity="0"
   inkscape:pageshadow="2"
   inkscape:window-width="1920"
   inkscape:window-height="1017"
   id="namedview24"
   showgrid="false"
   inkscape:zoom="0.85"
   inkscape:cx="500"
   inkscape:cy="500"
   inkscape:window-x="-8"
   inkscape:window-y="-8"
   inkscape:window-maximized="1"
   inkscape:current-layer="svg22"
   inkscape:document-rotation="0" />
<metadata
   id="metadata2"> Svg Vector Icons : http://www.onlinewebfonts.com/icon <rdf:RDF><cc:Work
     rdf:about=""><dc:format>image/svg+xml</dc:format><dc:type
       rdf:resource="http://purl.org/dc/dcmitype/StillImage" /><dc:title /></cc:Work></rdf:RDF></metadata>
<g
   id="g20"
   style="fill:#ffffff"><path
     d="M363.5,798c-6.8,1.3-9.8,4.5-8.9,9.6c0.8,5.1,4.7,6.8,11.5,5.1c6.8-1.7,9.8-4.7,8.9-8.9C374.1,799,370.3,797.1,363.5,798z"
     id="path4"
     style="fill:#ffffff" /><path
     d="M327.1,803.1c-6.8,0-10.2,2.3-10.2,7c0,5.5,3.6,7.9,10.8,7c6.8,0,10.2-2.3,10.2-7C337.9,804.6,334.3,802.2,327.1,803.1z"
     id="path6"
     style="fill:#ffffff" /><path
     d="M277.3,801.1c-1.7,4.7,1.1,7.9,8.3,9.6c6.4,2.5,10.4,1.3,12.1-3.8c1.3-4.7-1.5-8.1-8.3-10.2C283.1,795,279,796.4,277.3,801.1z"
     id="path8"
     style="fill:#ffffff" /><path
     d="M936.1,63.9C900.1,28,856.9,10,806.2,10H193.7c-50.6,0-93.9,18-129.8,53.9C28,99.9,10,143.1,10,193.7v612.5c0,50.6,18,93.9,53.9,129.8C99.9,972,143.1,990,193.7,990h142.9c9.4,0,16.4-0.3,21.1-0.9c4.7-0.6,9.4-3.4,14-8.3c4.7-4.9,7-12,7-21.4c0-1.3-0.1-15.7-0.3-43.4c-0.2-27.6-0.3-49.6-0.3-65.7l-14.7,2.6c-9.4,1.7-21.2,2.4-35.4,2.2c-14.2-0.2-29-1.7-44.3-4.5c-15.3-2.8-29.6-9.1-42.8-19.1c-13.2-10-22.5-23.1-28.1-39.2l-6.4-14.7c-4.3-9.8-10.9-20.6-20.1-32.5c-9.1-11.9-18.4-20-27.8-24.2l-4.5-3.2c-3-2.1-5.7-4.7-8.3-7.7c-2.6-3-4.5-6-5.7-8.9c-1.3-3-0.2-5.4,3.2-7.3c3.4-1.9,9.6-2.9,18.5-2.9l12.8,1.9c8.5,1.7,19,6.8,31.6,15.3c12.5,8.5,22.9,19.6,30.9,33.2c9.8,17.4,21.6,30.7,35.4,39.9c13.8,9.1,27.8,13.7,41.8,13.7c14,0,26.2-1.1,36.4-3.2c10.2-2.1,19.8-5.3,28.7-9.6c3.8-28.5,14.3-50.4,31.3-65.7c-24.2-2.6-46-6.4-65.4-11.5c-19.4-5.1-39.3-13.4-60-24.9c-20.6-11.5-37.8-25.7-51.4-42.8c-13.6-17-24.8-39.3-33.5-67c-8.7-27.7-13.1-59.6-13.1-95.7c0-51.5,16.8-95.3,50.4-131.4c-15.7-38.7-14.3-82.1,4.5-130.2c12.3-3.8,30.6-1,54.9,8.6c24.2,9.6,42,17.8,53.3,24.6c11.3,6.8,20.3,12.5,27.1,17.2c39.6-11.1,80.4-16.6,122.5-16.6c42.1,0,82.9,5.5,122.5,16.6l24.2-15.3c16.6-10.2,36.2-19.6,58.7-28.1c22.5-8.5,39.8-10.8,51.7-7c19.1,48.1,20.8,91.5,5.1,130.2c33.6,36.2,50.4,80,50.4,131.4c0,36.2-4.4,68.2-13.1,96s-20,50.2-33.8,67c-13.8,16.8-31.1,30.9-51.7,42.4c-20.6,11.5-40.6,19.8-60,24.9c-19.4,5.1-41.2,8.9-65.4,11.5c22.1,19.1,33.2,49.3,33.2,90.6v152.5c0,7.2,1.1,13.1,3.2,17.5c2.1,4.5,5.5,7.5,10.2,9.2c4.7,1.7,8.8,2.8,12.5,3.2c3.6,0.4,8.8,0.6,15.6,0.6h142.9c50.6,0,93.9-18,129.8-53.9C972,900.1,990,856.8,990,806.2V193.7C990,143.1,972,99.8,936.1,63.9z"
     id="path10"
     style="fill:#ffffff" /><path
     d="M204,723.3c-3,2.1-2.6,5.5,1.3,10.2c4.3,4.3,7.7,4.9,10.2,1.9c3-2.1,2.6-5.5-1.3-10.2C209.9,721.4,206.5,720.7,204,723.3z"
     id="path12"
     style="fill:#ffffff" /><path
     d="M182.9,707.4c-1.3,3,0.2,5.5,4.5,7.7c3.4,2.1,6.2,1.7,8.3-1.3c1.3-3-0.2-5.5-4.5-7.7C187,704.8,184.2,705.2,182.9,707.4z"
     id="path14"
     style="fill:#ffffff" /><path
     d="M223.7,748.2c-3.8,2.1-3.8,6,0,11.5c3.8,5.5,7.4,7,10.8,4.5c3.8-3,3.8-7,0-12.1C231.2,746.5,227.6,745.2,223.7,748.2z"
     id="path16"
     style="fill:#ffffff" /><path
     d="M246.1,776.9c-3.8,3.4-3,7.4,2.6,12.1c5.1,5.1,9.4,5.7,12.8,1.9c3.4-3.4,2.6-7.4-2.6-12.1C253.7,773.7,249.5,773.1,246.1,776.9z"
     id="path18"
     style="fill:#ffffff" /></g>
</svg>
