<?xml version="1.0" encoding="UTF-8" standalone="no"?>
<svg
   xmlns:dc="http://purl.org/dc/elements/1.1/"
   xmlns:cc="http://creativecommons.org/ns#"
   xmlns:rdf="http://www.w3.org/1999/02/22-rdf-syntax-ns#"
   xmlns:svg="http://www.w3.org/2000/svg"
   xmlns="http://www.w3.org/2000/svg"
   xmlns:sodipodi="http://sodipodi.sourceforge.net/DTD/sodipodi-0.dtd"
   xmlns:inkscape="http://www.inkscape.org/namespaces/inkscape"
   version="1.1"
   x="0px"
   y="0px"
   viewBox="0 0 1000 1000"
   enable-background="new 0 0 1000 1000"
   xml:space="preserve"
   id="svg40"
   sodipodi:docname="icon_linkedin_02.svg"
   inkscape:version="1.0.1 (3bc2e813f5, 2020-09-07)"><defs
   id="defs44" /><sodipodi:namedview
   pagecolor="#ffffff"
   bordercolor="#666666"
   borderopacity="1"
   objecttolerance="10"
   gridtolerance="10"
   guidetolerance="10"
   inkscape:pageopacity="0"
   inkscape:pageshadow="2"
   inkscape:window-width="1920"
   inkscape:window-height="1017"
   id="namedview42"
   showgrid="false"
   inkscape:zoom="0.85"
   inkscape:cx="500"
   inkscape:cy="500"
   inkscape:window-x="-8"
   inkscape:window-y="-8"
   inkscape:window-maximized="1"
   inkscape:current-layer="svg40"
   inkscape:document-rotation="0" />
<metadata
   id="metadata2"> Svg Vector Icons : http://www.onlinewebfonts.com/icon <rdf:RDF><cc:Work
     rdf:about=""><dc:format>image/svg+xml</dc:format><dc:type
       rdf:resource="http://purl.org/dc/dcmitype/StillImage" /><dc:title /></cc:Work></rdf:RDF></metadata>
<g
   id="g38"
   style="fill:#ffffff"><g
     id="g6"
     style="fill:#ffffff"><path
       d="M158,10C76.3,10,10,76.3,10,158V842c0,81.7,66.3,148,148,148h684c81.7,0,147.9-66.3,147.9-148V158c0-81.7-66.2-148-147.9-148H158z M277.7,132c50.4,0,81.4,33.2,82.4,76.6c0,42.5-32.1,76.5-83.4,76.5h-0.9c-49.4,0-81.4-34-81.4-76.5C194.3,165.1,227.3,132,277.7,132L277.7,132z M711.9,335.3c96.9,0,169.5,63.3,169.5,199.4v254.1H734.2V551.7c0-59.6-21.4-100.2-74.7-100.2c-40.7,0-64.8,27.3-75.4,53.8c-3.9,9.5-4.9,22.7-4.9,36v247.5H431.8c0,0,1.9-401.5,0-443.1h147.3v62.8C598.7,378.3,633.7,335.3,711.9,335.3z M203,345.7h147.3v443.1H203V345.7z"
       id="path4"
       style="fill:#ffffff" /></g><g
     id="g8"
     style="fill:#ffffff" /><g
     id="g10"
     style="fill:#ffffff" /><g
     id="g12"
     style="fill:#ffffff" /><g
     id="g14"
     style="fill:#ffffff" /><g
     id="g16"
     style="fill:#ffffff" /><g
     id="g18"
     style="fill:#ffffff" /><g
     id="g20"
     style="fill:#ffffff" /><g
     id="g22"
     style="fill:#ffffff" /><g
     id="g24"
     style="fill:#ffffff" /><g
     id="g26"
     style="fill:#ffffff" /><g
     id="g28"
     style="fill:#ffffff" /><g
     id="g30"
     style="fill:#ffffff" /><g
     id="g32"
     style="fill:#ffffff" /><g
     id="g34"
     style="fill:#ffffff" /><g
     id="g36"
     style="fill:#ffffff" /></g>
</svg>
