<?xml version="1.0" encoding="UTF-8" standalone="no"?>
<svg
   xmlns:dc="http://purl.org/dc/elements/1.1/"
   xmlns:cc="http://creativecommons.org/ns#"
   xmlns:rdf="http://www.w3.org/1999/02/22-rdf-syntax-ns#"
   xmlns:svg="http://www.w3.org/2000/svg"
   xmlns="http://www.w3.org/2000/svg"
   xmlns:sodipodi="http://sodipodi.sourceforge.net/DTD/sodipodi-0.dtd"
   xmlns:inkscape="http://www.inkscape.org/namespaces/inkscape"
   version="1.1"
   x="0px"
   y="0px"
   viewBox="0 0 1000 1000"
   enable-background="new 0 0 1000 1000"
   xml:space="preserve"
   id="svg8"
   sodipodi:docname="icon_reddit_02.svg"
   inkscape:version="1.0.1 (3bc2e813f5, 2020-09-07)"><defs
   id="defs12" /><sodipodi:namedview
   pagecolor="#ffffff"
   bordercolor="#666666"
   borderopacity="1"
   objecttolerance="10"
   gridtolerance="10"
   guidetolerance="10"
   inkscape:pageopacity="0"
   inkscape:pageshadow="2"
   inkscape:window-width="1920"
   inkscape:window-height="1017"
   id="namedview10"
   showgrid="false"
   inkscape:zoom="0.85"
   inkscape:cx="500"
   inkscape:cy="500"
   inkscape:window-x="-8"
   inkscape:window-y="-8"
   inkscape:window-maximized="1"
   inkscape:current-layer="svg8"
   inkscape:document-rotation="0" />
<metadata
   id="metadata2"> Svg Vector Icons : http://www.onlinewebfonts.com/icon <rdf:RDF><cc:Work
     rdf:about=""><dc:format>image/svg+xml</dc:format><dc:type
       rdf:resource="http://purl.org/dc/dcmitype/StillImage" /><dc:title /></cc:Work></rdf:RDF></metadata>
<g
   id="g6"
   style="fill:#ffffff"><path
     d="M609.1,648.6c5.6,5.6,5.6,11.1,0,16.6C586.6,687.8,550.2,699,500,699c-50.2,0-86.6-11.3-109.1-33.8c-5.6-5.6-5.6-11.1,0-16.6c2.1-2.6,4.9-3.8,8.3-3.8c3.4,0,6.2,1.3,8.3,3.8c17.9,17.9,48.7,26.8,92.5,26.8c43.8,0,74.7-8.9,92.5-26.8c2.1-2.6,4.9-3.8,8.3-3.8c3.4,0,6.2,1.3,8.3,3.8H609.1z M441.3,549.2c0,13.2-4.9,24.7-14.7,34.5c-9.8,9.8-21.3,14.7-34.5,14.7c-13.2,0-24.7-4.9-34.5-14.7c-9.8-9.8-14.7-21.3-14.7-34.5c0-13.6,4.8-25.2,14.4-34.8s21.2-14.4,34.8-14.4c13.6,0,25.2,4.8,34.8,14.4S441.3,535.6,441.3,549.2z M657,549.2c0,13.2-4.9,24.7-14.7,34.5c-9.8,9.8-21.3,14.7-34.5,14.7c-13.2,0-24.7-4.9-34.5-14.7c-9.8-9.8-14.7-21.3-14.7-34.5c0-13.6,4.8-25.2,14.4-34.8s21.2-14.4,34.8-14.4c13.6,0,25.2,4.8,34.8,14.4S657,535.6,657,549.2L657,549.2z M794.2,483.4c0-17.9-6.4-33.2-19.1-46c-12.7-12.8-28.3-19.2-46.5-19.1c-17.9,0-33.4,6.6-46.5,19.8c-48.1-33.2-104.9-50.6-170.4-52.3l34.5-155l109.1,24.9c0.4,13.6,5.4,25.1,15,34.5c9.6,9.4,21,14,34.1,14c13.6,0,25.2-4.8,34.8-14.4c9.6-9.6,14.4-21.2,14.4-34.8c0-13.6-4.8-25.2-14.4-34.8c-9.6-9.6-21.2-14.4-34.8-14.4c-20.4,0-35.1,9.1-44,27.4l-120.6-26.8c-7.2-2.1-11.7,0.7-13.4,8.3l-38.3,171c-65.5,2.6-121.8,20.2-169,52.9c-12.7-13.6-28.5-20.4-47.2-20.4c-18.3,0-33.8,6.4-46.5,19.1s-19.1,28.1-19.1,46c0,12.7,3.4,24.4,10.2,35.1c6.8,10.7,15.7,18.8,26.8,24.3c-2.1,10.6-3.2,20.8-3.2,30.6c0,51.9,25.5,96.2,76.5,133c51,36.8,112.5,55.2,184.4,55.2c72.3,0,134-18.4,185.1-55.2c51.1-36.8,76.6-81.1,76.5-133c0-10.6-1.3-21-3.8-31.3c10.6-5.6,19.2-13.5,25.8-23.9C791,507.8,794.2,496.2,794.2,483.4L794.2,483.4z M990,193.7v612.5c0,50.6-18,93.9-53.9,129.8C900.2,972,856.9,990,806.2,990H193.7c-50.6,0-93.9-18-129.9-53.9C28,900.2,10,856.9,10,806.2V193.7c0-50.6,18-93.9,53.9-129.9C99.8,28,143.1,10,193.7,10h612.5c50.6,0,93.9,18,129.8,53.9C972,99.8,990,143.1,990,193.7z"
     id="path4"
     style="fill:#ffffff" /></g>
</svg>
